<svg width="120" height="120" viewBox="0 0 120 120" fill="none" xmlns="http://www.w3.org/2000/svg">
<rect width="120" height="120" fill="#2E7EEE"/>
<path d="M48.4033 51.7099C49.1783 51.7099 49.8066 52.3382 49.8066 53.1132V66.3702C49.8066 66.9341 50.2637 67.3912 50.8276 67.3912H56.244C57.019 67.3912 57.6473 68.0195 57.6473 68.7945C57.6473 69.5696 57.019 70.1978 56.244 70.1978H50.8276C48.7137 70.1978 47 68.4842 47 66.3702V53.1132C47 52.3382 47.6283 51.7099 48.4033 51.7099ZM63.1803 58.125C64.5238 58.125 65.7647 58.5639 66.7676 59.3061C67.0238 59.0187 67.3975 58.8378 67.8134 58.8378C68.5884 58.8378 69.2167 59.4661 69.2167 60.2411V68.7945C69.2167 69.5696 68.5884 70.1978 67.8134 70.1978C67.1867 70.1978 66.656 69.7871 66.4758 69.2201C65.5295 69.8379 64.3969 70.1978 63.1803 70.1978C59.8465 70.1978 57.1439 67.4952 57.1439 64.1614C57.1439 60.8276 59.8465 58.125 63.1803 58.125ZM63.1803 60.9316C61.3965 60.9316 59.9505 62.3776 59.9505 64.1614C59.9505 65.9452 61.3965 67.3912 63.1803 67.3912C64.9641 67.3912 66.4101 65.9452 66.4101 64.1614C66.4101 62.3776 64.9641 60.9316 63.1803 60.9316ZM73.1593 51.7099C73.9344 51.7099 74.5626 52.3382 74.5626 53.1132L74.5622 59.0611C75.4963 58.4683 76.6043 58.125 77.7924 58.125C81.1263 58.125 83.8289 60.8276 83.8289 64.1614C83.8289 67.4952 81.1263 70.1978 77.7924 70.1978C76.5763 70.1978 75.4441 69.8382 74.4964 69.2194C74.3169 69.7869 73.7861 70.1978 73.1593 70.1978C72.3843 70.1978 71.756 69.5696 71.756 68.7945V53.1132C71.756 52.3382 72.3843 51.7099 73.1593 51.7099ZM77.7924 60.9316C76.0087 60.9316 74.5626 62.3776 74.5626 64.1614C74.5626 65.9452 76.0087 67.3912 77.7924 67.3912C79.5762 67.3912 81.0223 65.9452 81.0223 64.1614C81.0223 62.3776 79.5762 60.9316 77.7924 60.9316ZM94.543 52.4227C95.318 52.4227 95.9463 53.051 95.9463 53.826C95.9463 54.601 95.318 55.2293 94.543 55.2293H89.3131C88.6462 55.2293 88.1056 55.7699 88.1056 56.4368L88.105 59.9957L93.652 59.9961C94.427 59.9961 95.0553 60.6243 95.0553 61.3994C95.0553 62.1744 94.427 62.8027 93.652 62.8027L88.105 62.8017L88.1056 66.3702C88.1056 66.9341 88.5627 67.3912 89.1266 67.3912H94.543C95.318 67.3912 95.9463 68.0195 95.9463 68.7945C95.9463 69.5696 95.318 70.1978 94.543 70.1978H89.1266C87.0127 70.1978 85.299 68.4842 85.299 66.3702V56.4368C85.299 54.2199 87.0962 52.4227 89.3131 52.4227H94.543ZM105.488 58.9907C105.981 58.3933 106.866 58.3093 107.463 58.803C108.061 59.2967 108.145 60.1813 107.651 60.7787L104.561 64.5173L107.651 68.257C108.145 68.8543 108.061 69.7389 107.463 70.2326C106.866 70.7264 105.981 70.6423 105.488 70.0449L102.74 66.7204L99.9926 70.0449C99.5297 70.605 98.7233 70.7138 98.1321 70.3184L98.0169 70.2326C97.4195 69.7389 97.3355 68.8543 97.8292 68.257L100.919 64.5173L97.8292 60.7787C97.3355 60.1813 97.4195 59.2967 98.0169 58.803C98.6143 58.3093 99.4988 58.3933 99.9926 58.9907L102.74 62.3144L105.488 58.9907Z" fill="white"/>
<path d="M32.5 45C33.3284 45 34 45.6716 34 46.5V51.5C34 52.3284 33.3284 53 32.5 53H31.997V54.515L40.7172 66.6234C40.8704 66.8362 40.9647 67.0846 40.9918 67.3436L41 67.5V73.5C41 74.3284 40.3284 75 39.5 75H12.5C11.6716 75 11 74.3284 11 73.5V67.5C11 67.1854 11.0989 66.8788 11.2827 66.6235L20.001 54.515V53H19.5C18.7203 53 18.0795 52.4051 18.0069 51.6445L18 51.5V46.5C18 45.6716 18.6716 45 19.5 45H32.5ZM31 48H21V50H21.5011C22.2807 50 22.9215 50.5949 22.9942 51.3555L23.0011 51.5V54.8783C23.0011 55.272 22.8773 55.6558 22.6472 55.9753L14 67.983V72H38V67.984L29.3519 55.9754C29.1547 55.7015 29.0355 55.3804 29.0055 55.0463L28.998 54.8783V51.5C28.998 50.6716 29.6695 50 30.498 50H31V48ZM30.3999 66C31.2283 66 31.8999 66.6716 31.8999 67.5C31.8999 68.3284 31.2283 69 30.3999 69H26.8C25.9716 69 25.3 68.3284 25.3 67.5C25.3 66.6716 25.9716 66 26.8 66H30.3999ZM22.729 60.4393L25.3973 63.1077C25.9831 63.6935 25.9831 64.6432 25.3973 65.229L22.729 67.8973C22.1432 68.4831 21.1935 68.4831 20.6077 67.8973C20.0219 67.3115 20.0219 66.3618 20.6077 65.776L22.2149 64.1687L20.6077 62.5607C20.0563 62.0093 20.0239 61.1356 20.5104 60.5463L20.6077 60.4393C21.1935 59.8536 22.1432 59.8536 22.729 60.4393Z" fill="white"/>
</svg>
